<svg width="16" height="10" viewBox="0 0 16 10" fill="none" xmlns="http://www.w3.org/2000/svg">
<path d="M2.56066 0.439339C1.97487 -0.146447 1.02513 -0.146446 0.43934 0.43934C-0.146447 1.02513 -0.146447 1.97487 0.43934 2.56066L6.87006 8.99138C7.45585 9.57717 8.40559 9.57717 8.99138 8.99138C9.57717 8.40559 9.57717 7.45585 8.99138 6.87006L2.56066 0.439339Z" fill="black"/>
<path d="M13.35 0.439342C13.9358 -0.146445 14.8856 -0.146446 15.4714 0.43934C16.0572 1.02513 16.0572 1.97487 15.4714 2.56066L9.21275 8.81928C8.62696 9.40507 7.67721 9.40507 7.09142 8.81928C6.50564 8.23349 6.50564 7.28375 7.09142 6.69796L13.35 0.439342Z" fill="black"/>
</svg>
